# xmcd
#
# Track frame offsets:
#	150
#	6858
#	7690
#	59349
#	84201
#	119938
#	175749
#	242314
#	265571
#	286939
#
# Disc length: 4558 seconds
#
# Revision: 1
# Processed by: cddbd v1.5.2PL0 Copyright (c) Steve Scherf et al.
# Submitted via: audiograbber 1.83.01
#
DISCID=7011cc0a
DTITLE=Grateful Dead - 69-01-17 Uncertain Venue, Santa Barbara, CA
DYEAR=1900
DGENRE=
TTITLE0=Cryptical Envelopment
TTITLE1=Drums
TTITLE2=The Other One
TTITLE3=Cryptical Envelopment
TTITLE4=Cosmic Charlie
TTITLE5=Good Morning Little Schoolgirl
TTITLE6=Dark Star
TTITLE7=St Stephen
TTITLE8=The Eleven
TTITLE9=Turn On Your Lovelight
EXTD=
EXTT0=
EXTT1=
EXTT2=
EXTT3=
EXTT4=
EXTT5=
EXTT6=
EXTT7=
EXTT8=
EXTT9=
PLAYORDER=
